<svg xmlns="http://www.w3.org/2000/svg" xmlns:xlink="http://www.w3.org/1999/xlink" width="2380" viewBox="0 0 1784.88 1784.99993" height="2380" preserveAspectRatio="xMidYMid meet"><defs><clipPath id="b384d6d080"><path d="M 0 0.0585938 L 1784.761719 0.0585938 L 1784.761719 1784.9375 L 0 1784.9375 Z M 0 0.0585938" clip-rule="nonzero"/></clipPath><clipPath id="f6c6eb4c57"><path d="M 0 0.0585938 L 1784.761719 0.0585938 L 1784.761719 1784.9375 L 0 1784.9375 Z M 0 0.0585938" clip-rule="nonzero"/></clipPath><mask id="14e76f0386"><g><g transform="matrix(1.314076, 0, 0, 1.314076, -671.194407, -671.134346)"/></g></mask><clipPath id="b89ea224c9"><rect x="0" width="1785" y="0" height="1785"/></clipPath></defs><g clip-path="url(#b384d6d080)"><path fill="#ffffff" d="M 0 0.0585938 L 1784.878906 0.0585938 L 1784.878906 1784.941406 L 0 1784.941406 Z M 0 0.0585938" fill-opacity="1" fill-rule="nonzero"/><g transform="matrix(1, 0, 0, 1, -0, 0.000000000000129986)"><g clip-path="url(#b89ea224c9)"><g clip-path="url(#f6c6eb4c57)"><path fill="#232323" d="M 0 0.0585938 L 1785 0.0585938 L 1785 1785.058594 L 0 1785.058594 Z M 0 0.0585938" fill-opacity="1" fill-rule="nonzero"/><g mask="url(#14e76f0386)"><g transform="matrix(1.314076, 0, 0, 1.314076, -671.194407, -671.134346)"/></g></g></g></g></g></svg>